HIERARCHY
ROOT Hips
{
	OFFSET 15.585500 22.159004 44.358299
	CHANNELS 6 Xposition Yposition Zposition Zrotation Xrotation Yrotation
	JOINT Chest
	{
		OFFSET -0.128500 0.160400 6.566002
		CHANNELS 6 Xposition Yposition Zposition Zrotation Xrotation Yrotation
		JOINT Chest2
		{
			OFFSET 0.000000 0.000000 3.554802
			CHANNELS 6 Xposition Yposition Zposition Zrotation Xrotation Yrotation
			JOINT Neck
			{
				OFFSET 0.000000 0.000000 8.267998
				CHANNELS 6 Xposition Yposition Zposition Zrotation Xrotation Yrotation
				JOINT Head
				{
					OFFSET 0.000000 0.000002 2.173897
					CHANNELS 6 Xposition Yposition Zposition Zrotation Xrotation Yrotation
					End Site
					{
						OFFSET 0.000000 0.000000 7.718697
					}
				}
			}
			JOINT LeftCollar
			{
				OFFSET 2.057500 0.117599 5.946301
				CHANNELS 6 Xposition Yposition Zposition Zrotation Xrotation Yrotation
				JOINT LeftShoulder
				{
					OFFSET 4.957699 0.000000 0.000000
					CHANNELS 6 Xposition Yposition Zposition Zrotation Xrotation Yrotation
					JOINT LeftElbow
					{
						OFFSET 0.000000 0.000000 -8.465500
						CHANNELS 6 Xposition Yposition Zposition Zrotation Xrotation Yrotation
						JOINT LeftWrist
						{
							OFFSET 0.000000 -0.000002 -14.594898
							CHANNELS 6 Xposition Yposition Zposition Zrotation Xrotation Yrotation
							End Site
							{
								OFFSET 0.000000 0.000000 -2.173901
							}
						}
					}
				}
			}
			JOINT RightCollar
			{
				OFFSET -3.048500 -0.728800 6.604099
				CHANNELS 6 Xposition Yposition Zposition Zrotation Xrotation Yrotation
				JOINT RightShoulder
				{
					OFFSET -3.710299 0.000000 0.000000
					CHANNELS 6 Xposition Yposition Zposition Zrotation Xrotation Yrotation
					JOINT RightElbow
					{
						OFFSET 0.000000 0.000000 -10.450901
						CHANNELS 6 Xposition Yposition Zposition Zrotation Xrotation Yrotation
						JOINT RightWrist
						{
							OFFSET 0.000000 0.000000 -12.539200
							CHANNELS 6 Xposition Yposition Zposition Zrotation Xrotation Yrotation
							End Site
							{
								OFFSET 0.000000 -0.000002 -2.173901
							}
						}
					}
				}
			}
		}
	}
	JOINT LeftHip
	{
		OFFSET 2.442599 -0.601400 -2.767502
		CHANNELS 6 Xposition Yposition Zposition Zrotation Xrotation Yrotation
		JOINT LeftKnee
		{
			OFFSET 0.000000 -0.000002 -17.033703
			CHANNELS 6 Xposition Yposition Zposition Zrotation Xrotation Yrotation
			JOINT LeftAnkle
			{
				OFFSET 0.000000 -0.000002 -19.318800
				CHANNELS 6 Xposition Yposition Zposition Zrotation Xrotation Yrotation
				End Site
				{
					OFFSET 0.000000 -8.281900 0.000000
				}
			}
		}
	}
	JOINT RightHip
	{
		OFFSET -3.126200 -0.601400 -2.283501
		CHANNELS 6 Xposition Yposition Zposition Zrotation Xrotation Yrotation
		JOINT RightKnee
		{
			OFFSET 0.000000 -0.000002 -16.919401
			CHANNELS 6 Xposition Yposition Zposition Zrotation Xrotation Yrotation
			JOINT RightAnkle
			{
				OFFSET 0.000000 -0.000002 -18.035900
				CHANNELS 6 Xposition Yposition Zposition Zrotation Xrotation Yrotation
				End Site
				{
					OFFSET 0.000000 -9.230099 0.000000
				}
			}
		}
	}
}
MOTION
Frames: 10
Frame Time: 0.041667
20.279497 41.672501 8.989601 2.644239 -1.614412 -15.154872 -0.128500 0.160401 6.566008 -10.116995 27.849514 13.258968 0.000001 0.000005 3.554807 -0.959665 -10.506084 -1.299811 -0.000001 -0.000004 8.268000 -0.646256 20.440927 16.872514 0.000003 -0.000002 2.173894 0.886037 2.890443 3.044188 2.057505 0.117599 5.946306 -23.839317 5.893795 10.231658 4.957694 -0.000001 0.000003 -31.148487 1.375523 -116.067891 0.000002 0.000006 -8.465508 -146.001154 -119.004134 -122.513171 -0.000003 0.000001 -14.594894 22.420531 -33.298060 16.408073 -3.048501 -0.728797 6.604105 39.416072 12.662761 -10.369428 -3.710290 0.000007 -0.000000 38.475122 -14.333178 100.978671 0.000002 0.000007 -10.450896 -32.021604 -83.319654 -45.920048 0.000004 0.000005 -12.539200 -133.517740 11.347146 -100.792009 2.442597 -0.601399 -2.767509 114.583902 -19.919842 126.014094 -0.000003 -0.000004 -17.033709 -182.144971 58.738903 143.344552 0.000002 -0.000000 -19.318798 22.088637 32.963770 28.009206 -3.126204 -0.601406 -2.283498 -127.986393 -24.409416 -95.369781 0.000000 -0.000001 -16.919395 144.027694 8.090036 -144.576089 0.000002 -0.000003 -18.035896 11.861409 41.354002 -109.954482
20.252701 41.890606 8.922195 2.587783 -2.819263 -15.377541 -0.128499 0.160399 6.566004 -10.010934 27.879374 13.148610 -0.000002 -0.000002 3.554805 -1.195458 -10.487802 -1.338839 -0.000000 0.000003 8.267997 -0.495568 21.389581 17.236925 0.000002 0.000005 2.173899 0.922841 3.104183 3.270451 2.057505 0.117599 5.946308 -23.916428 5.872178 10.678395 4.957689 0.000005 0.000003 -30.430098 1.686473 -116.116194 0.000002 0.000003 -8.465502 -145.207554 -118.776238 -121.626954 -0.000001 -0.000000 -14.594898 19.918367 -33.621866 15.745864 -3.048503 -0.728803 6.604098 39.421270 12.853826 -10.232960 -3.710293 0.000002 -0.000004 37.998272 -14.094980 100.923784 -0.000002 0.000009 -10.450892 -31.833459 -83.637333 -46.327886 0.000006 -0.000001 -12.539200 -134.558278 11.629469 -98.606123 2.442600 -0.601400 -2.767508 114.333323 -20.151290 125.928881 -0.000003 -0.000003 -17.033705 -181.492907 58.438115 142.284124 0.000002 -0.000001 -19.318796 21.903800 33.945787 29.811290 -3.126204 -0.601402 -2.283498 -127.994644 -24.523652 -95.192654 0.000000 0.000001 -16.919399 144.628764 8.495892 -144.155172 0.000005 -0.000001 -18.035898 12.494009 41.116868 -111.990172
20.232996 42.092300 8.856205 2.484142 -4.013095 -15.642858 -0.128495 0.160405 6.566004 -10.036738 27.875578 13.129895 -0.000001 0.000004 3.554809 -1.309334 -10.472077 -1.352925 0.000002 0.000003 8.268002 -0.319551 22.301949 17.572260 0.000001 0.000006 2.173895 0.961415 3.298319 3.490718 2.057507 0.117602 5.946309 -23.996763 5.851888 11.101104 4.957697 -0.000000 0.000002 -29.637734 1.929785 -116.137559 0.000002 0.000002 -8.465500 -144.456069 -118.484043 -120.691519 0.000000 -0.000001 -14.594891 17.416031 -33.991604 15.019239 -3.048500 -0.728803 6.604105 39.424282 13.026757 -10.108595 -3.710293 0.000006 0.000002 37.517222 -13.814501 100.933885 0.000000 0.000006 -10.450904 -31.942701 -83.970352 -47.008155 0.000007 -0.000001 -12.539200 -135.588599 11.917495 -97.269147 2.442601 -0.601398 -2.767509 114.079261 -20.340826 125.830909 -0.000005 -0.000007 -17.033707 -180.930154 58.103907 141.284171 0.000006 -0.000001 -19.318800 21.715173 34.920947 31.617116 -3.126199 -0.601399 -2.283500 -127.964905 -24.707260 -95.009222 0.000001 -0.000004 -16.919397 145.247347 8.883090 -143.780946 0.000002 -0.000001 -18.035894 13.117926 40.885748 -113.853373
20.218800 42.277405 8.791801 2.214393 -5.236742 -15.946806 -0.128497 0.160396 6.566007 -9.939343 27.942314 13.162020 0.000001 -0.000004 3.554805 -1.446545 -10.453395 -1.371238 -0.000001 -0.000005 8.268002 -0.118236 23.174678 17.876656 0.000002 0.000012 2.173894 1.002865 3.473794 3.703754 2.057504 0.117597 5.946309 -24.078292 5.832754 11.493077 4.957696 0.000009 0.000004 -28.911754 2.199606 -116.370154 0.000005 0.000008 -8.465500 -143.378320 -118.355294 -119.549525 0.000001 0.000002 -14.594898 15.051813 -34.239182 14.552029 -3.048501 -0.728805 6.604101 39.420389 13.172779 -9.997612 -3.710295 0.000004 -0.000002 37.086503 -13.474399 101.117016 -0.000000 0.000010 -10.450904 -33.030740 -84.223718 -48.640567 0.000003 0.000001 -12.539205 -136.700267 12.237332 -95.782208 2.442597 -0.601399 -2.767503 113.901157 -20.525191 125.644185 -0.000002 -0.000002 -17.033709 -180.443489 57.744837 140.314215 0.000003 -0.000002 -19.318800 21.521328 35.884045 33.452696 -3.126202 -0.601407 -2.283500 -127.759918 -24.989065 -94.736623 0.000000 -0.000007 -16.919395 145.872063 9.246233 -143.453821 0.000001 -0.000002 -18.035898 13.726051 40.670167 -115.503772
20.208698 42.445408 8.729694 2.144458 -6.325724 -16.288374 -0.128498 0.160397 6.566011 -10.017398 27.823571 13.232802 -0.000002 0.000003 3.554804 -1.610628 -10.431166 -1.393283 -0.000002 0.000003 8.268002 0.109731 24.005130 18.149734 0.000001 0.000004 2.173893 1.048374 3.632475 3.908975 2.057500 0.117599 5.946303 -24.043598 5.915247 11.690473 4.957692 0.000005 0.000003 -28.263195 2.312849 -116.253931 0.000001 0.000004 -8.465498 -142.592712 -118.030423 -118.806906 0.000001 0.000003 -14.594893 12.722880 -34.509681 13.985193 -3.048502 -0.728806 6.604095 39.407852 13.286976 -9.900492 -3.710296 0.000010 0.000000 36.604268 -13.090117 101.240957 0.000000 0.000005 -10.450897 -34.100331 -84.595827 -50.218276 0.000005 0.000002 -12.539196 -137.886985 12.595523 -94.149978 2.442599 -0.601394 -2.767500 113.579858 -20.575771 125.592603 -0.000007 0.000002 -17.033705 -180.014430 57.374354 139.345230 0.000004 0.000006 -19.318798 21.319764 36.828339 35.342534 -3.126202 -0.601396 -2.283497 -127.784288 -25.243076 -94.609943 0.000000 -0.000005 -16.919399 146.481658 9.581131 -143.171270 -0.000004 -0.000006 -18.035896 14.278835 40.462631 -117.009009
20.200996 42.596500 8.670799 1.916381 -7.421115 -16.656060 -0.128499 0.160394 6.566002 -9.965360 27.760595 13.340737 -0.000000 0.000002 3.554805 -1.789665 -10.404382 -1.423408 0.000000 0.000003 8.268002 0.348317 24.790897 18.400092 0.000002 -0.000002 2.173900 1.098143 3.776307 4.106550 2.057506 0.117603 5.946303 -24.140593 5.895970 12.003202 4.957699 -0.000001 0.000001 -27.654053 2.586119 -116.349868 -0.000001 0.000001 -8.465506 -141.834397 -117.931795 -118.097591 0.000002 0.000005 -14.594900 11.050528 -35.057681 14.754107 -3.048501 -0.728797 6.604095 39.369282 13.371223 -9.809755 -3.710299 0.000005 -0.000003 36.128866 -12.651449 101.421943 -0.000003 0.000010 -10.450902 -35.887918 -84.983864 -52.480670 0.000008 0.000001 -12.539200 -139.140038 12.988914 -92.384039 2.442598 -0.601398 -2.767507 113.349387 -20.634328 125.452899 -0.000007 -0.000003 -17.033705 -179.629740 57.006989 138.353610 0.000004 -0.000002 -19.318800 21.108469 37.746764 37.307784 -3.126204 -0.601404 -2.283498 -127.632671 -25.580904 -94.384246 -0.000001 -0.000004 -16.919394 147.056637 9.882792 -142.928580 -0.000004 -0.000008 -18.035896 14.771088 40.275320 -118.332863
20.194302 42.730606 8.615993 1.656338 -8.460796 -17.043373 -0.128501 0.160401 6.566002 -9.880103 27.662466 13.472968 -0.000000 0.000000 3.554804 -1.999653 -10.372709 -1.456570 0.000001 0.000006 8.268001 0.615666 25.530796 18.621882 0.000002 0.000007 2.173894 1.152755 3.907856 4.297005 2.057505 0.117604 5.946301 -24.233040 5.879106 12.283901 4.957698 0.000003 0.000002 -27.066209 2.825094 -116.446980 0.000002 -0.000002 -8.465501 -141.104209 -117.839437 -117.436032 0.000006 -0.000003 -14.594897 8.756168 -35.267607 13.930611 -3.048502 -0.728800 6.604101 39.319159 13.422443 -9.728111 -3.710296 0.000001 0.000000 35.664413 -12.162273 101.657961 -0.000002 0.000008 -10.450906 -38.621209 -85.383635 -55.656643 0.000007 0.000001 -12.539201 -140.458756 13.452485 -90.500273 2.442595 -0.601394 -2.767505 113.141537 -20.665998 125.301924 0.000000 -0.000001 -17.033705 -179.148485 56.580819 137.192587 0.000004 0.000003 -19.318802 20.979042 38.632025 39.389834 -3.126202 -0.601400 -2.283498 -127.444513 -25.948736 -94.135245 -0.000001 -0.000004 -16.919399 147.579570 10.145134 -142.720163 -0.000003 -0.000003 -18.035892 15.186366 40.114152 -119.480622
20.187199 42.847900 8.566193 1.370960 -9.435017 -17.442539 -0.128502 0.160399 6.566005 -9.759704 27.522377 13.619589 0.000000 -0.000002 3.554803 -2.234840 -10.335452 -1.494763 0.000005 0.000005 8.267998 0.903484 26.223244 18.822173 0.000001 0.000009 2.173898 1.212834 4.029428 4.481346 2.057505 0.117599 5.946305 -24.326106 5.862426 12.538817 4.957692 0.000005 0.000002 -26.438786 3.031120 -116.545840 0.000002 -0.000001 -8.465506 -140.306033 -117.709117 -116.743506 0.000001 -0.000003 -14.594887 6.599550 -35.523476 13.248456 -3.048503 -0.728797 6.604098 39.250109 13.444682 -9.648389 -3.710290 0.000005 0.000000 35.213686 -11.629009 101.946912 -0.000001 0.000005 -10.450899 -42.607164 -85.786677 -60.054855 0.000007 0.000004 -12.539199 -141.819890 13.910572 -88.518131 2.442595 -0.601400 -2.767508 112.961589 -20.680245 125.141961 -0.000001 -0.000003 -17.033709 -178.960423 56.335035 136.229434 0.000001 0.000004 -19.318798 20.668513 39.476140 41.528202 -3.126203 -0.601405 -2.283498 -127.227764 -26.331651 -93.860057 0.000000 -0.000002 -16.919403 148.035170 10.360890 -142.539600 0.000001 -0.000000 -18.035898 15.508967 39.985802 -120.461219
20.178696 42.948502 8.522289 1.066157 -10.336169 -17.866563 -0.128500 0.160403 6.566001 -9.612633 27.331431 13.793412 0.000001 -0.000005 3.554799 -2.494399 -10.292078 -1.537806 -0.000002 0.000002 8.267994 1.210285 26.866607 19.004954 0.000001 0.000007 2.173894 1.279056 4.143626 4.660269 2.057504 0.117604 5.946308 -24.418638 5.845044 12.771416 4.957694 0.000009 -0.000003 -25.835708 3.223424 -116.653702 0.000002 0.000007 -8.465493 -139.471602 -117.589616 -116.035625 0.000000 0.000000 -14.594899 4.565475 -35.821491 12.682167 -3.048501 -0.728800 6.604097 39.135761 13.441638 -10.360790 -3.710294 0.000001 0.000002 34.928659 -10.598103 102.953805 -0.000000 0.000007 -10.450898 -48.265832 -86.177405 -66.097120 0.000010 -0.000002 -12.539195 -143.277985 14.587884 -86.453113 2.442596 -0.601391 -2.767502 112.839335 -20.788562 124.963802 -0.000003 -0.000002 -17.033705 -178.608627 56.134029 135.117070 0.000007 0.000002 -19.318802 20.413697 40.274173 43.764591 -3.126203 -0.601396 -2.283497 -127.045384 -26.524686 -93.602319 -0.000001 0.000002 -16.919395 148.588730 10.482925 -142.390784 -0.000002 -0.000002 -18.035902 15.711708 39.899889 -121.345687
20.167904 43.032909 8.484898 0.752160 -11.158606 -18.255480 -0.128500 0.160396 6.566010 -9.415589 27.093610 13.927638 -0.000001 0.000003 3.554810 -2.776916 -10.242182 -1.585014 0.000002 -0.000002 8.267998 1.532592 27.459237 19.176000 0.000001 0.000005 2.173897 1.353413 4.252782 4.833963 2.057505 0.117592 5.946305 -24.508402 5.825424 12.984564 4.957697 0.000006 0.000002 -25.255861 3.404794 -116.765444 0.000007 0.000001 -8.465497 -138.636530 -117.493788 -115.371826 -0.000001 0.000001 -14.594895 2.860508 -36.187237 12.308622 -3.048501 -0.728803 6.604104 39.031499 13.415817 -10.181368 -3.710292 0.000000 -0.000002 34.486930 -10.056479 103.269523 -0.000002 0.000005 -10.450902 -56.117165 -86.529037 -74.304508 0.000009 0.000001 -12.539200 -144.612822 14.851708 -84.351928 2.442600 -0.601401 -2.767509 112.709780 -20.735787 124.799345 -0.000006 -0.000003 -17.033710 -178.461669 55.901997 133.954776 0.000002 -0.000000 -19.318798 20.206280 41.011639 46.126593 -3.126201 -0.601405 -2.283497 -126.775742 -26.997260 -93.247553 -0.000001 -0.000003 -16.919392 148.774566 10.604967 -142.241135 -0.000003 -0.000002 -18.035900 15.814422 39.854584 -121.995443
